<svg xmlns="http://www.w3.org/2000/svg" preserveAspectRatio="none" viewBox="0 0 147.75 48.49" width="600" height="196.91"><title>アートボード 1</title><path d="M135.43 29.64c-5.83-.43-9.39-1-11.77-2.24a32.37 32.37 0 0 0-1 7.84 12.49 12.49 0 0 0 2.45 8.14c3.06 4.06 8 5.7 13.72 4.91 5.2-.72 9-4.39 9-10.92a6.27 6.27 0 0 0-2.48-5.29c-2.42-1.87-5.17-2.08-9.92-2.44zM132.1 2c-6.51.8-9.59 5.54-9 10.67a6.27 6.27 0 0 0 3.17 5.28c1.86 1.15 4.45 1.62 12 2.22 4.14.33 6.8 1 8.5 2a19.2 19.2 0 0 0 .86-7A14.55 14.55 0 0 0 143.89 6a13.35 13.35 0 0 0-11.79-4zM23.86 12.16a8.5 8.5 0 0 0-8.5-8.5H0v17h15.36a8.5 8.5 0 0 0 8.5-8.5zm1.24 27.35a9 9 0 0 0-9-9H0v18h16.12a9 9 0 0 0 8.98-9zm36.64-8.97H39.99l-6.4 17.95h34.55l-6.4-17.95zm-18.23-9.88h14.71L50.87 0l-7.36 20.66zm49.95 27.83A12.56 12.56 0 0 0 106 35.93V3.65H80.89v32.28a12.56 12.56 0 0 0 12.57 12.56z"/></svg>